<?xml version="1.0" encoding="UTF-8"?>
<svg xmlns="http://www.w3.org/2000/svg" xmlns:xlink="http://www.w3.org/1999/xlink" width="612pt" height="792pt" viewBox="0 0 612 792" version="1.1">
<g id="surface1">
<path style=" stroke:none;fill-rule:evenodd;fill:rgb(0.784302%,0.392151%,1.176453%);fill-opacity:1;" d="M 189.070313 362.769531 L 170.484375 396.316406 L 231.003906 396.316406 C 226.652344 402.769531 219.421875 403.796875 212.328125 403.796875 L 132.113281 403.796875 C 122.429688 403.796875 123.792969 400.523438 127.519531 394.210938 L 140.75 371.785156 C 144.867188 364.808594 146.003906 362.769531 155.109375 362.769531 Z M 189.070313 362.769531 "/>
<path style=" stroke:none;fill-rule:evenodd;fill:rgb(0.784302%,0.392151%,1.176453%);fill-opacity:1;" d="M 229.042969 403.882813 L 339.132813 403.882813 C 346.46875 403.882813 348.738281 402.179688 352.082031 396.085938 L 356.710938 387.640625 C 360.496094 380.742188 358.089844 379.085938 350.664063 379.085938 L 282.238281 379.085938 C 282.238281 372.636719 284.59375 371.246094 291.105469 371.246094 L 357.046875 371.246094 C 365.003906 370.492188 369.082031 367.265625 370.824219 362.554688 L 264.136719 362.554688 C 253.246094 362.554688 252.007813 363.3125 246.824219 372.179688 L 242.839844 378.996094 C 238.523438 386.371094 240.472656 387.351563 248.558594 387.351563 L 316.78125 387.351563 C 318.65625 390.394531 315.410156 393 313.601563 395.191406 L 247.421875 395.191406 C 240.347656 395.191406 233.171875 397.835938 229.042969 403.882813 "/>
<path style=" stroke:none;fill-rule:evenodd;fill:rgb(92.941284%,10.980225%,14.117432%);fill-opacity:1;" d="M 380.101563 363.097656 C 416.542969 363.097656 452.980469 363.097656 489.421875 363.097656 C 494.609375 363.097656 500.964844 364.25 496.671875 370.960938 L 491.441406 379.128906 C 486.335938 387.113281 485.089844 386.609375 475.292969 386.609375 L 406.394531 386.609375 C 404.453125 388.761719 396.234375 397.003906 405.097656 396.238281 L 468.273438 396.238281 C 474.421875 396.238281 481.730469 398.097656 484.53125 404.199219 L 368.664063 404.199219 C 363.257813 404.199219 357.425781 403.429688 361.636719 396.242188 L 367.296875 386.570313 C 371.660156 379.117188 373 379.019531 381.910156 379.019531 L 452.3125 379.019531 C 454.273438 377.058594 462.191406 370.609375 454.71875 370.132813 L 393.433594 370.132813 C 388.703125 370.375 384.339844 367.296875 380.101563 363.097656 "/>
<path style="fill-rule:evenodd;fill:rgb(0%,0%,0.784302%);fill-opacity:1;stroke-width:0.216;stroke-linecap:butt;stroke-linejoin:miter;stroke:rgb(0%,0%,0.784302%);stroke-opacity:1;stroke-miterlimit:22.925586;" d="M 456.076355 501.534415 C 456.891259 502.559805 465.148233 516.440347 465.23458 517.336214 C 464.058096 518.145732 458.995978 517.649228 457.274426 517.649228 L 440.954761 517.654624 C 436.712943 517.649228 421.04628 509.154681 416.13527 507.62739 L 411.898849 506.008353 C 406.556102 509.742932 402.470789 513.396558 397.430257 517.492721 C 396.94995 517.73018 372.65394 518.06478 371.768879 517.222881 C 369.162266 512.149899 365.530277 507.033743 362.540497 501.863619 C 363.657617 500.778865 375.433248 501.318544 377.840183 501.313147 C 379.869348 503.121071 384.445762 513.05656 385.740973 513.520684 C 386.739365 513.876872 387.753948 512.349581 388.396157 511.815299 L 398.407063 503.81186 C 402.195556 500.8868 399.141016 501.448066 407.354815 501.44267 C 409.362393 501.44267 416.896207 501.140449 418.207609 501.680128 C 425.919514 506.035337 437.009762 509.39214 445.811804 513.634017 C 446.999081 514.135918 446.297508 514.330202 447.236537 514.265441 L 440.458263 501.734096 C 441.58078 501.010927 453.987827 501.318544 456.076355 501.534415 Z M 456.076355 501.534415 " transform="matrix(0.72382,0,0,-0.72381,0,792)"/>
<path style="fill-rule:evenodd;fill:rgb(0%,0%,0.784302%);fill-opacity:1;stroke-width:0.7087;stroke-linecap:butt;stroke-linejoin:miter;stroke:rgb(0%,0%,0.784302%);stroke-opacity:1;stroke-miterlimit:22.925586;" d="M 662.959412 514.734962 C 663.790506 515.441941 664.562236 516.278443 664.778104 517.233675 C 662.446724 517.892083 652.851365 517.519705 649.753651 517.519705 C 642.192854 517.519705 611.188728 518.275255 606.056452 515.927652 C 601.140045 515.366386 594.739542 510.293404 604.383471 508.674367 C 611.712209 508.134688 623.147848 508.372147 630.55214 508.372147 C 632.608288 508.372147 652.279313 509.079126 641.766513 504.016938 C 640.120515 503.22361 601.409881 504.346142 596.703946 503.709321 C 595.138898 501.626161 595.554446 503.067103 595.505875 501.750287 C 597.302981 501.318544 634.847925 501.60997 640.152895 501.604573 C 647.810833 499.909982 672.322711 507.179457 652.392644 510.433721 L 619.515859 510.503879 C 617.038767 510.503879 616.914642 510.082929 615.354992 511.858473 C 615.338801 515.825113 622.332944 514.702581 625.036698 514.702581 C 629.273119 514.702581 633.514936 514.702581 637.756754 514.702581 C 645.846429 514.702581 654.999257 514.303218 662.959412 514.734962 Z M 662.959412 514.734962 " transform="matrix(0.72382,0,0,-0.72381,0,792)"/>
<path style="fill-rule:evenodd;fill:rgb(0%,0%,0.784302%);fill-opacity:1;stroke-width:0.216;stroke-linecap:butt;stroke-linejoin:miter;stroke:rgb(0%,0%,0.784302%);stroke-opacity:1;stroke-miterlimit:22.925586;" d="M 530.340546 515.209879 C 530.572604 516.715583 530.923391 516.348601 530.982755 517.379388 C 528.878036 518.140336 496.012044 517.665418 490.874371 517.665418 C 489.179803 517.665418 477.053385 518.107955 476.087373 517.271452 C 475.801347 517.028597 462.800662 501.113466 469.514175 501.140449 L 519.201727 500.897594 C 521.754373 500.876007 522.866096 502.683931 522.882286 504.524236 L 484.824654 504.583601 C 484.948779 506.019147 489.088059 512.187677 490.593742 514.351789 C 496.432987 514.675597 527.345369 513.142909 530.340546 515.209879 Z M 530.340546 515.209879 " transform="matrix(0.72382,0,0,-0.72381,0,792)"/>
<path style="fill-rule:evenodd;fill:rgb(0%,0%,0.784302%);fill-opacity:1;stroke-width:0.216;stroke-linecap:butt;stroke-linejoin:miter;stroke:rgb(0%,0%,0.784302%);stroke-opacity:1;stroke-miterlimit:22.925586;" d="M 259.75467 514.51909 C 263.213964 514.794326 267.272293 514.605439 270.796348 514.605439 L 298.416733 514.600042 C 299.50687 514.713374 300.883032 516.327014 300.618593 517.395579 C 299.280208 517.956845 265.712643 517.649228 259.517214 517.649228 C 242.458199 517.649228 247.288259 518.367001 244.832754 515.485115 C 243.386434 513.785127 236.802442 501.890603 236.797046 501.863619 C 238.599548 500.7195 289.069624 501.377908 290.969267 501.453463 C 291.633063 502.419489 291.886709 503.131865 291.298467 503.649956 C 290.267694 504.545823 257.434082 503.104881 254.163673 504.087096 C 254.239227 505.71153 258.734691 512.721959 259.75467 514.51909 Z M 259.75467 514.51909 " transform="matrix(0.72382,0,0,-0.72381,0,792)"/>
<path style="fill-rule:evenodd;fill:rgb(0%,0%,0.784302%);fill-opacity:1;stroke-width:0.216;stroke-linecap:butt;stroke-linejoin:miter;stroke:rgb(0%,0%,0.784302%);stroke-opacity:1;stroke-miterlimit:22.925586;" d="M 596.04015 514.605439 C 596.855054 515.571464 597.675354 516.019397 597.702338 517.336214 C 596.083324 518.145732 570.92384 517.654624 566.951858 517.654624 C 562.240526 517.654624 539.228935 518.000019 536.4928 517.368595 C 535.877575 516.321618 535.014101 515.6794 535.472821 514.6702 C 536.374073 513.828301 553.816254 515.204482 557.070473 514.173695 C 555.672724 512.004186 549.596024 502.522028 549.504279 501.750287 C 550.740127 500.908388 555.348921 501.30775 557.113647 501.30775 C 559.72026 501.30775 562.429411 501.237592 565.019834 501.329337 C 566.843924 502.743296 571.636206 512.074344 572.769516 514.184489 C 574.728524 515.128927 592.445938 514.583851 596.04015 514.605439 Z M 596.04015 514.605439 " transform="matrix(0.72382,0,0,-0.72381,0,792)"/>
<path style="fill-rule:evenodd;fill:rgb(0%,0%,0.784302%);fill-opacity:1;stroke-width:0.216;stroke-linecap:butt;stroke-linejoin:miter;stroke:rgb(0%,0%,0.784302%);stroke-opacity:1;stroke-miterlimit:22.925586;" d="M 211.907398 507.449296 C 213.477842 504.475665 205.355786 501.302353 213.914975 501.302353 C 215.868586 501.302353 224.719198 500.838229 225.814731 501.852826 C 226.009013 502.03092 231.605406 511.372762 232.932998 513.455922 C 233.542827 514.238457 235.102477 516.640028 235.188825 517.341611 C 233.548223 518.237478 222.452578 517.724783 219.662477 517.778751 C 219.090425 517.600657 216.537779 513.531478 216.003504 512.635611 C 215.658114 512.058154 215.242567 511.351175 214.918764 510.833083 C 212.333738 510.590227 190.584978 510.768321 186.073325 510.768321 C 184.961601 510.768321 182.354988 510.957209 181.442943 510.644195 C 179.089976 509.84547 178.717602 507.632787 183.196876 507.638184 C 188.118679 507.64358 210.70393 507.902626 211.907398 507.449296 Z M 211.907398 507.449296 " transform="matrix(0.72382,0,0,-0.72381,0,792)"/>
<path style="fill-rule:evenodd;fill:rgb(0%,0%,0.784302%);fill-opacity:1;stroke-width:0.216;stroke-linecap:butt;stroke-linejoin:miter;stroke:rgb(0%,0%,0.784302%);stroke-opacity:1;stroke-miterlimit:22.925586;" d="M 320.672785 504.340745 C 320.284221 505.285184 320.402949 505.166454 320.867066 505.922005 C 322.842264 509.133094 324.337154 512.700372 326.744089 515.641622 C 328.913568 518.296842 325.659349 517.76256 324.553023 517.76256 C 321.99498 517.757163 319.436937 517.76256 316.873498 517.76256 C 315.583683 517.76256 314.034826 517.838115 312.777391 517.767957 C 311.099013 517.665418 311.444403 517.0232 310.74283 516.051778 C 309.528569 513.806714 303.716307 504.324555 302.777279 501.340131 C 310.861557 500.8868 354.742244 501.199814 355.211758 501.636954 C 355.665082 502.289966 356.048249 503.385514 355.961902 504.340745 C 353.053073 504.049319 321.735937 503.93059 320.672785 504.340745 Z M 320.672785 504.340745 " transform="matrix(0.72382,0,0,-0.72381,0,792)"/>
<path style="fill-rule:evenodd;fill:rgb(0%,0%,0.784302%);fill-opacity:1;stroke-width:0.216;stroke-linecap:butt;stroke-linejoin:miter;stroke:rgb(0%,0%,0.784302%);stroke-opacity:1;stroke-miterlimit:22.925586;" d="M 172.916134 501.599177 C 175.684649 505.657562 178.712206 511.038161 181.308025 515.420354 C 182.360385 517.778751 186.051738 517.929861 166.569598 517.638434 C 163.649975 512.75434 160.903047 507.832468 158.075169 502.889009 C 157.616448 502.387108 157.751366 502.991548 157.378993 501.960761 C 158.339608 501.264576 160.088143 501.572193 161.356371 501.572193 Z M 172.916134 501.599177 " transform="matrix(0.72382,0,0,-0.72381,0,792)"/>
<path style="fill-rule:evenodd;fill:rgb(0%,0%,0.784302%);fill-opacity:1;stroke-width:0.216;stroke-linecap:butt;stroke-linejoin:miter;stroke:rgb(0%,0%,0.784302%);stroke-opacity:1;stroke-miterlimit:22.925586;" d="M 259.565785 507.810881 C 265.755816 507.400725 279.965366 507.7785 287.596321 507.7785 C 290.440389 507.7785 294.412371 506.812475 294.29904 510.169278 C 293.333028 511.167684 291.573699 510.779115 290.235314 510.779115 L 262.393663 510.779115 C 259.943555 510.795305 259.036907 510.314991 259.565785 507.810881 Z M 259.565785 507.810881 " transform="matrix(0.72382,0,0,-0.72381,0,792)"/>
<path style="fill-rule:evenodd;fill:rgb(0%,0%,0.784302%);fill-opacity:1;stroke-width:0.216;stroke-linecap:butt;stroke-linejoin:miter;stroke:rgb(0%,0%,0.784302%);stroke-opacity:1;stroke-miterlimit:22.925586;" d="M 522.812129 507.773103 C 523.578462 508.48548 524.312415 509.143888 524.603838 510.147691 C 523.767347 511.15689 522.25087 510.779115 520.874708 510.779115 C 517.37224 510.779115 491.327695 510.951812 490.76104 510.70356 C 489.929946 510.028961 489.417258 508.884842 489.525193 507.783897 Z M 522.812129 507.773103 " transform="matrix(0.72382,0,0,-0.72381,0,792)"/>
</g>
</svg>
